<svg width="32" height="32" viewBox="0 0 32 32" fill="none" xmlns="http://www.w3.org/2000/svg">
<circle opacity="0.500647" cx="16" cy="16" r="16" fill="#10141E"/>
<path d="M8 8.00188V13.0019H8.582M23.938 15.0019C23.7168 13.2447 22.919 11.6106 21.6694 10.3557C20.4198 9.10068 18.7891 8.29575 17.033 8.06702C15.2768 7.83829 13.4944 8.19869 11.965 9.09174C10.4357 9.98479 9.24585 11.36 8.582 13.0019M8.582 13.0019H13M24 24.0019V19.0019H23.419M23.419 19.0019C22.7542 20.6428 21.564 22.0169 20.0348 22.9092C18.5056 23.8014 16.7237 24.1614 14.9681 23.9328C13.2125 23.7041 11.5822 22.8998 10.3325 21.6456C9.08287 20.3915 8.28435 18.7583 8.062 17.0019M23.419 19.0019H19" stroke="#EEEEEE" stroke-width="1.5" stroke-linecap="round" stroke-linejoin="round"/>
</svg>
