<svg width="16" height="16" viewBox="0 0 16 16" xmlns="http://www.w3.org/2000/svg" fill="#5A698F">
    <path fill-rule="evenodd" clip-rule="evenodd" d="M0.8 0H6.4C6.88 0 7.2 0.32 7.2 0.8V6.4C7.2 6.88 6.88 7.2 6.4 7.2H0.8C0.32 7.2 0 6.88 0 6.4V0.8C0 0.32 0.32 0 0.8 0ZM0.8 8.8H6.4C6.88 8.8 7.2 9.12 7.2 9.6V15.2C7.2 15.68 6.88 16 6.4 16H0.8C0.32 16 0 15.68 0 15.2V9.6C0 9.12 0.32 8.8 0.8 8.8ZM15.2 0H9.6C9.12 0 8.8 0.32 8.8 0.8V6.4C8.8 6.88 9.12 7.2 9.6 7.2H15.2C15.68 7.2 16 6.88 16 6.4V0.8C16 0.32 15.68 0 15.2 0ZM9.6 8.8H15.2C15.68 8.8 16 9.12 16 9.6V15.2C16 15.68 15.68 16 15.2 16H9.6C9.12 16 8.8 15.68 8.8 15.2V9.6C8.8 9.12 9.12 8.8 9.6 8.8Z" />
</svg>