<svg width="16" height="16" viewBox="0 0 16 16" fill="#5A698F" xmlns="http://www.w3.org/2000/svg">
<path fill-rule="evenodd" clip-rule="evenodd" d="M13.5644 0H2.43556C1.09044 0 0 1.09044 0 2.43556V13.5644C0 14.9096 1.09044 16 2.43556 16H13.5644C14.2104 16 14.8299 15.7434 15.2866 15.2866C15.7434 14.8299 16 14.2104 16 13.5644V2.43556C16 1.78961 15.7434 1.17011 15.2866 0.713358C14.8299 0.256602 14.2104 0 13.5644 0ZM3.2 7.2H1.6V5.6H3.2V7.2ZM3.2 8.8H1.6V10.4H3.2V8.8ZM14.4 7.2H12.8V5.6H14.4V7.2ZM14.4 8.8H12.8V10.4H14.4V8.8ZM14.4 2.192V3.2H12.8V1.6H13.808C13.965 1.6 14.1156 1.66237 14.2266 1.77339C14.3376 1.88441 14.4 2.03499 14.4 2.192ZM3.2 1.6H2.192C2.03499 1.6 1.88441 1.66237 1.77339 1.77339C1.66237 1.88441 1.6 2.03499 1.6 2.192V3.2H3.2V1.6ZM1.6 13.808V12.8H3.2V14.4H2.192C2.03499 14.4 1.88441 14.3376 1.77339 14.2266C1.66237 14.1156 1.6 13.965 1.6 13.808ZM12.8 14.4H13.808C14.135 14.4 14.4 14.135 14.4 13.808V12.8H12.8V14.4Z"/>
</svg>
